<svg xmlns="http://www.w3.org/2000/svg" 
  xmlns:xlink="http://www.w3.org/1999/xlink" id="favicon" width="300" height="300">
  <g transform="matrix(3.24295 0 0 3.24295 0.0000281367 101.356)" id="comp-f">
    <path d="M27,0L3,0C1.3,0 0,1.3 0,3L0,27C0,28.7 1.3,30 3,30L16.5,30C16.8,30 17,29.8 17,29.5L17,18.5C17,18.2 16.8,18 16.5,18L13,18L13,15L16.5,15C16.8,15 17,14.8 17,14.5L17,10.5C17,7.3 19.3,5 22.5,5L25,5L25,8L23,8C21.3,8 20,9.3 20,11L20,14.5C20,14.8 20.2,15 20.5,15L24.8,15L23.7,18L20.5,18C20.2,18 20,18.2 20,18.5L20,29.5C20,29.8 20.2,30 20.5,30L27,30C28.7,30 30,28.7 30,27L30,3C30,1.3 28.7,0 27,0z" id="comp-path-f"></path>
  </g>

  <g transform="matrix(4.0093125 0 0 5.66921875 85.851 59.2925)" id="comp-n">
    <path d="M5,28A1,1 0 1 1 3,28A1,1 0 1 1 5,28zM4.5,4C4.8,4 5,3.8 5,3.5S4.8,3 4.5,3L3.5,3C3.2,3 3,3.2 3,3.5S3.2,4 3.5,4L4.5,4zM31,30L23,30C21.9,30 21,29.1 21,28L21,26L31,26C31.3,26 31.5,25.8 31.5,25.5S31.3,25 31,25L21,25L21,17L25.6,17L23.3,19.3C22.9,19.7 22.9,20.3 23.3,20.7C23.5,20.9 23.8,21 24,21S24.5,20.9 24.7,20.7L28.7,16.7C29.1,16.3 29.1,15.7 28.7,15.3L24.7,11.3C24.3,10.9 23.7,10.9 23.3,11.3S22.9,12.3 23.3,12.7L25.6,15L21,15L21,6L31,6C31.3,6 31.5,5.8 31.5,5.5S31.3,5 31,5L21,5L21,4C21,2.9 21.9,2 23,2L31,2C31.6,2 32,1.6 32,1S31.6,0 31,0L23,0C20.8,0 19,1.8 19,4L19,15L13,15L13,4C13,1.8 11.2,0 9,0L1,0C0.4,0 0,0.4 0,1S0.4,2 1,2L9,2C10.1,2 11,2.9 11,4L11,5L1,5C0.7,5 0.5,5.2 0.5,5.5S0.7,6 1,6L11,6L11,15L6,15C5.4,15 5,15.4 5,16S5.4,17 6,17L11,17L11,25L1,25C0.7,25 0.5,25.2 0.5,25.5S0.7,26 1,26L11,26L11,28C11,29.1 10.1,30 9,30L1,30C0.4,30 0,30.4 0,31S0.4,32 1,32L9,32C11.2,32 13,30.2 13,28L13,17L19,17L19,28C19,30.2 20.8,32 23,32L31,32C31.6,32 32,31.6 32,31S31.6,30 31,30zM29,28A1,1 0 1 1 27,28A1,1 0 1 1 29,28zM27.5,3C27.2,3 27,3.2 27,3.5S27.2,4 27.5,4L28.5,4C28.8,4 29,3.8 29,3.5S28.8,3 28.5,3L27.5,3z" id="comp-path-n"></path>
  </g>

  <g id="comp-o" transform="matrix(3.05384 0 0 3.05384 208.385 104.193)">
    <path id="comp-path-o" d="M8.3,13.6C8.4,13.8 8.6,13.8 8.7,13.8L8.8,13.8C9,13.8 9.2,13.6 9.2,13.4C9.9,10.8 12.3,9 15,9L27.9,9C28.2,9 28.4,8.8 28.4,8.5C28.4,8.4 28.4,8.3 28.3,8.2C25.8,3.1 20.7,0 15,0C10.7,0 6.5,1.9 3.7,5.2C3.5,5.3 3.5,5.6 3.6,5.8L8.3,13.6zM29.3,10.3C29.2,10.1 29,10 28.8,10L19.7,10C19.5,10 19.3,10.1 19.2,10.3S19.2,10.7 19.3,10.8C20.4,12 21,13.4 21,15C21,16.4 20.5,17.8 19.6,18.9C19.5,19 19.5,19 19.5,19.1L19.5,19.2L14.5,29.2C14.4,29.3 14.5,29.5 14.5,29.7S14.8,29.9 14.9,30L15,30C23.3,30 30,23.3 30,15C30,13.4 29.7,11.9 29.3,10.3zM17.1,20.9C17,20.7 16.8,20.7 16.6,20.7C13.9,21.4 11.2,20.3 9.8,18C9.8,17.9 9.7,17.9 9.7,17.9L9.6,17.8L3.2,7C3.1,6.8 3,6.7 2.8,6.7S2.4,6.8 2.3,7C0.8,9.4 0,12.2 0,15C0,22.4 5.3,28.6 12.7,29.8L12.8,29.8C13,29.8 13.2,29.7 13.2,29.5L17.2,21.4C17.3,21.3 17.3,21.1 17.1,20.9zM10,15C10,17.8 12.2,20 15,20S20,17.8 20,15S17.8,10 15,10S10,12.2 10,15z"></path>
  </g>
</svg>